<svg xmlns="http://www.w3.org/2000/svg" viewBox="0 0 420 260" width="100%" height="100%" preserveAspectRatio="xMidYMid meet">
  <style>
    text { font: 13px system-ui, -apple-system, "Segoe UI", sans-serif; fill: currentColor; }
    .lbl { font-size: 12px; }
    .ink { stroke: currentColor; fill: none; stroke-width: 2; }
    .accent { stroke: #3b82f6; fill: none; stroke-width: 3; }
    .muted { stroke: #94a3b8; fill: none; stroke-width: 1.5; }
  </style>
  <defs>
    <marker id="ac" viewBox="0 0 10 10" refX="8" refY="5" markerWidth="7" markerHeight="7" orient="auto">
      <path d="M0,0 L10,5 L0,10 z" fill="#3b82f6" />
    </marker>
  </defs>
  <text x="210" y="28" text-anchor="middle" class="lbl">colonne d'air</text>
  <rect class="muted" x="150" y="40" width="120" height="170" stroke-dasharray="5 5" />
  <line class="accent" x1="176" y1="58" x2="176" y2="200" marker-end="url(#ac)" />
  <line class="accent" x1="210" y1="58" x2="210" y2="200" marker-end="url(#ac)" />
  <line class="accent" x1="244" y1="58" x2="244" y2="200" marker-end="url(#ac)" />
  <line class="ink" x1="70" y1="210" x2="350" y2="210" />
  <line class="muted" x1="95" y1="210" x2="85" y2="222" />
  <line class="muted" x1="130" y1="210" x2="120" y2="222" />
  <line class="muted" x1="165" y1="210" x2="155" y2="222" />
  <line class="muted" x1="200" y1="210" x2="190" y2="222" />
  <line class="muted" x1="235" y1="210" x2="225" y2="222" />
  <line class="muted" x1="270" y1="210" x2="260" y2="222" />
  <line class="muted" x1="305" y1="210" x2="295" y2="222" />
  <text x="210" y="244" text-anchor="middle">≈ 1013 hPa au niveau de la mer</text>
</svg>
